<?xml version="1.0" encoding="UTF-8" standalone="no" ?>
<!DOCTYPE svg PUBLIC "-//W3C//DTD SVG 1.1//EN" "http://www.w3.org/Graphics/SVG/1.1/DTD/svg11.dtd">
<svg xmlns="http://www.w3.org/2000/svg" xmlns:xlink="http://www.w3.org/1999/xlink" version="1.1" width="500" height="500" viewBox="0 0 500 500" xml:space="preserve">
<desc>Created with Fabric.js 3.6.3</desc>
<defs>
</defs>
<g transform="matrix(1 0 0 1 306.86228098075287 287)" style=""  ><path fill="#5272ff" opacity="1" d="M-118.62 9.46L-121.93 9.46L-121.93-5.80L-127.16 4.09L-129.22 4.09L-134.42-5.80L-134.42 9.46L-137.70 9.46L-137.70-10.89L-133.48-10.89L-128.13-0.51L-122.74-10.89L-118.62-10.89L-118.62 9.46Z"/><path fill="#5272ff" opacity="1" d="M-101.94 9.46L-104.95 9.46L-104.95 7.71Q-106.04 8.68-107.25 9.29Q-108.47 9.91-109.89 9.91L-109.89 9.91Q-111.07 9.91-111.98 9.56Q-112.89 9.21-113.51 8.57Q-114.12 7.93-114.45 7.05Q-114.77 6.18-114.77 5.12L-114.77 5.12Q-114.77 3.72-114.31 2.78Q-113.85 1.84-113.03 1.25Q-112.21 0.65-111.09 0.35Q-109.96 0.05-108.63-0.08L-108.63-0.08L-105.10-0.42L-105.10-1.14Q-105.10-1.91-105.33-2.41Q-105.56-2.92-105.99-3.23Q-106.42-3.54-107.06-3.66Q-107.70-3.79-108.51-3.79L-108.51-3.79Q-109.29-3.79-109.87-3.64Q-110.45-3.49-110.88-3.26Q-111.30-3.02-111.58-2.72Q-111.86-2.42-112.02-2.13L-112.02-2.13L-114.52-3.73Q-114.24-4.23-113.75-4.71Q-113.26-5.18-112.52-5.56Q-111.79-5.93-110.78-6.17Q-109.77-6.40-108.45-6.40L-108.45-6.40Q-106.83-6.40-105.61-6.14Q-104.39-5.87-103.58-5.26Q-102.76-4.64-102.35-3.60Q-101.94-2.57-101.94-1.02L-101.94-1.02L-101.94 9.46ZM-105.10 5.33L-105.10 1.96L-107.30 2.17Q-108.32 2.25-109.11 2.45Q-109.89 2.64-110.43 2.97Q-110.96 3.31-111.24 3.82Q-111.52 4.33-111.52 5.06L-111.52 5.06Q-111.52 6.28-110.88 6.79Q-110.23 7.30-109.05 7.30L-109.05 7.30Q-108.60 7.30-108.11 7.13Q-107.61 6.97-107.11 6.71Q-106.60 6.44-106.09 6.08Q-105.59 5.72-105.10 5.33L-105.10 5.33Z"/><path fill="#5272ff" opacity="1" d="M-87.98-5.89L-88.61-2.86Q-88.84-2.95-89.22-3.02Q-89.59-3.10-89.99-3.10L-89.99-3.10Q-90.64-3.10-91.21-2.92Q-91.78-2.74-92.31-2.44Q-92.83-2.14-93.31-1.73Q-93.80-1.32-94.27-0.86L-94.27-0.86L-94.27 9.46L-97.43 9.46L-97.43-5.96L-94.27-5.96L-94.27-3.61Q-93.77-4.14-93.24-4.61Q-92.71-5.08-92.13-5.43Q-91.55-5.79-90.92-5.99Q-90.29-6.20-89.58-6.20L-89.58-6.20Q-89.04-6.20-88.65-6.12Q-88.26-6.04-87.98-5.89L-87.98-5.89Z"/><path fill="#5272ff" opacity="1" d="M-75.98 5.55L-73.52 7.16Q-73.93 7.79-74.46 8.30Q-74.99 8.81-75.68 9.17Q-76.38 9.53-77.27 9.72Q-78.16 9.91-79.26 9.91L-79.26 9.91Q-81.20 9.91-82.57 9.32Q-83.94 8.74-84.80 7.66Q-85.67 6.59-86.07 5.11Q-86.46 3.62-86.46 1.81L-86.46 1.81Q-86.46-0.07-86.05-1.59Q-85.63-3.11-84.76-4.18Q-83.89-5.24-82.55-5.82Q-81.22-6.40-79.38-6.40L-79.38-6.40Q-77.43-6.40-75.98-5.73Q-74.54-5.05-73.72-3.67L-73.72-3.67L-76.19-2.01Q-76.71-2.80-77.45-3.22Q-78.20-3.64-79.35-3.64L-79.35-3.64Q-81.33-3.64-82.27-2.32Q-83.20-1.01-83.20 1.81L-83.20 1.81Q-83.20 3.11-83.00 4.11Q-82.79 5.11-82.33 5.78Q-81.86 6.46-81.10 6.81Q-80.34 7.16-79.23 7.16L-79.23 7.16Q-78.72 7.16-78.27 7.08Q-77.82 7.00-77.43 6.81Q-77.03 6.62-76.68 6.31Q-76.32 6.00-75.98 5.55L-75.98 5.55Z"/><path fill="#5272ff" opacity="1" d="M-57.72 2.42L-67.86 2.42Q-67.84 3.58-67.61 4.47Q-67.39 5.36-66.90 5.95Q-66.42 6.55-65.65 6.85Q-64.87 7.16-63.74 7.16L-63.74 7.16Q-62.68 7.16-61.87 6.80Q-61.05 6.44-60.36 5.58L-60.36 5.58L-57.94 7.22Q-58.38 7.88-58.92 8.38Q-59.47 8.88-60.19 9.22Q-60.91 9.56-61.82 9.73Q-62.74 9.91-63.92 9.91L-63.92 9.91Q-67.61 9.91-69.36 7.88Q-71.12 5.84-71.12 1.87L-71.12 1.87Q-71.12 0.01-70.75-1.52Q-70.37-3.04-69.54-4.12Q-68.71-5.21-67.37-5.81Q-66.03-6.40-64.09-6.40L-64.09-6.40Q-62.38-6.40-61.16-5.89Q-59.95-5.37-59.19-4.43Q-58.42-3.49-58.07-2.17Q-57.72-0.85-57.72 0.75L-57.72 0.75L-57.72 2.42ZM-67.80 0.09L-60.85 0.09Q-60.85-1.83-61.66-2.84Q-62.46-3.85-64.20-3.85L-64.20-3.85Q-65.08-3.85-65.70-3.59Q-66.33-3.33-66.75-2.83Q-67.17-2.33-67.42-1.60Q-67.67-0.86-67.80 0.09L-67.80 0.09Z"/><path fill="#5272ff" opacity="1" d="M-50.76 9.46L-53.92 9.46L-53.92-12.43L-50.76-12.43L-50.76 9.46Z"/><path fill="#5272ff" opacity="1" d="M-32.67 1.78L-32.67 1.78Q-32.67 3.66-33.08 5.16Q-33.48 6.66-34.34 7.72Q-35.20 8.78-36.54 9.35Q-37.87 9.91-39.74 9.91L-39.74 9.91Q-41.62 9.91-42.97 9.34Q-44.33 8.76-45.19 7.71Q-46.05 6.65-46.45 5.15Q-46.85 3.65-46.85 1.78L-46.85 1.78Q-46.85-0.11-46.44-1.63Q-46.03-3.14-45.17-4.21Q-44.31-5.27-42.97-5.84Q-41.62-6.40-39.74-6.40L-39.74-6.40Q-37.87-6.40-36.54-5.84Q-35.20-5.27-34.34-4.21Q-33.48-3.14-33.08-1.63Q-32.67-0.11-32.67 1.78ZM-35.95 1.78L-35.95 1.78Q-35.95-0.96-36.84-2.30Q-37.73-3.64-39.74-3.64L-39.74-3.64Q-41.75-3.64-42.67-2.30Q-43.59-0.96-43.59 1.78L-43.59 1.78Q-43.59 4.46-42.69 5.81Q-41.78 7.16-39.74 7.16L-39.74 7.16Q-37.76 7.16-36.85 5.81Q-35.95 4.46-35.95 1.78Z"/><path fill="#5272ff" opacity="1" d="M-15.39 4.06L-12.61 5.99Q-13.14 6.81-13.81 7.52Q-14.48 8.24-15.38 8.76Q-16.28 9.28-17.49 9.58Q-18.69 9.88-20.30 9.88L-20.30 9.88Q-24.96 9.88-27.21 7.24Q-29.47 4.59-29.47-0.71L-29.47-0.71Q-29.47-6.05-27.20-8.68Q-24.94-11.31-20.44-11.31L-20.44-11.31Q-18.90-11.31-17.71-11.03Q-16.52-10.74-15.61-10.24Q-14.70-9.74-14.04-9.06Q-13.39-8.37-12.92-7.58L-12.92-7.58L-15.65-5.59Q-15.98-6.09-16.37-6.58Q-16.75-7.06-17.31-7.44Q-17.86-7.81-18.61-8.04Q-19.36-8.27-20.39-8.27L-20.39-8.27Q-23.25-8.27-24.59-6.37Q-25.93-4.48-25.93-0.71L-25.93-0.71Q-25.93 1.30-25.57 2.72Q-25.21 4.15-24.50 5.07Q-23.79 5.99-22.75 6.41Q-21.71 6.84-20.36 6.84L-20.36 6.84Q-19.34 6.84-18.58 6.62Q-17.81 6.40-17.23 6.02Q-16.65 5.65-16.21 5.14Q-15.77 4.63-15.39 4.06L-15.39 4.06Z"/><path fill="#5272ff" opacity="1" d="M5.35-7.75L-1.15-7.75L-1.15 9.46L-4.59 9.46L-4.59-7.75L-11.08-7.75L-11.08-10.89L5.35-10.89L5.35-7.75Z"/><path fill="#5272ff" opacity="1" d="M20.16 1.78L20.16 1.78Q20.16 3.66 19.76 5.16Q19.36 6.66 18.50 7.72Q17.64 8.78 16.30 9.35Q14.96 9.91 13.10 9.91L13.10 9.91Q11.21 9.91 9.86 9.34Q8.51 8.76 7.65 7.71Q6.79 6.65 6.39 5.15Q5.98 3.65 5.98 1.78L5.98 1.78Q5.98-0.11 6.39-1.63Q6.80-3.14 7.66-4.21Q8.52-5.27 9.87-5.84Q11.21-6.40 13.10-6.40L13.10-6.40Q14.96-6.40 16.30-5.84Q17.64-5.27 18.50-4.21Q19.36-3.14 19.76-1.63Q20.16-0.11 20.16 1.78ZM16.89 1.78L16.89 1.78Q16.89-0.96 16.00-2.30Q15.11-3.64 13.10-3.64L13.10-3.64Q11.08-3.64 10.16-2.30Q9.24-0.96 9.24 1.78L9.24 1.78Q9.24 4.46 10.15 5.81Q11.05 7.16 13.10 7.16L13.10 7.16Q15.08 7.16 15.98 5.81Q16.89 4.46 16.89 1.78Z"/><path fill="#5272ff" opacity="1" d="M33.48-5.89L32.85-2.86Q32.61-2.95 32.24-3.02Q31.86-3.10 31.47-3.10L31.47-3.10Q30.82-3.10 30.25-2.92Q29.67-2.74 29.15-2.44Q28.63-2.14 28.15-1.73Q27.66-1.32 27.19-0.86L27.19-0.86L27.19 9.46L24.03 9.46L24.03-5.96L27.19-5.96L27.19-3.61Q27.69-4.14 28.22-4.61Q28.75-5.08 29.33-5.43Q29.91-5.79 30.54-5.99Q31.17-6.20 31.88-6.20L31.88-6.20Q32.42-6.20 32.81-6.12Q33.20-6.04 33.48-5.89L33.48-5.89Z"/><path fill="#5272ff" opacity="1" d="M45.61-5.89L44.97-2.86Q44.74-2.95 44.36-3.02Q43.99-3.10 43.59-3.10L43.59-3.10Q42.95-3.10 42.37-2.92Q41.80-2.74 41.28-2.44Q40.76-2.14 40.27-1.73Q39.79-1.32 39.32-0.86L39.32-0.86L39.32 9.46L36.16 9.46L36.16-5.96L39.32-5.96L39.32-3.61Q39.81-4.14 40.34-4.61Q40.87-5.08 41.45-5.43Q42.03-5.79 42.67-5.99Q43.30-6.20 44.00-6.20L44.00-6.20Q44.55-6.20 44.94-6.12Q45.33-6.04 45.61-5.89L45.61-5.89Z"/><path fill="#5272ff" opacity="1" d="M60.52 2.42L50.38 2.42Q50.40 3.58 50.62 4.47Q50.85 5.36 51.34 5.95Q51.82 6.55 52.59 6.85Q53.37 7.16 54.50 7.16L54.50 7.16Q55.56 7.16 56.37 6.80Q57.19 6.44 57.88 5.58L57.88 5.58L60.30 7.22Q59.86 7.88 59.32 8.38Q58.77 8.88 58.05 9.22Q57.33 9.56 56.42 9.73Q55.50 9.91 54.32 9.91L54.32 9.91Q50.63 9.91 48.88 7.88Q47.12 5.84 47.12 1.87L47.12 1.87Q47.12 0.01 47.49-1.52Q47.87-3.04 48.70-4.12Q49.53-5.21 50.87-5.81Q52.20-6.40 54.14-6.40L54.14-6.40Q55.86-6.40 57.08-5.89Q58.29-5.37 59.05-4.43Q59.82-3.49 60.17-2.17Q60.52-0.85 60.52 0.75L60.52 0.75L60.52 2.42ZM50.44 0.09L57.39 0.09Q57.39-1.83 56.58-2.84Q55.78-3.85 54.04-3.85L54.04-3.85Q53.16-3.85 52.54-3.59Q51.91-3.33 51.49-2.83Q51.07-2.33 50.82-1.60Q50.57-0.86 50.44 0.09L50.44 0.09Z"/><path fill="#5272ff" opacity="1" d="M75.38 5.18L75.38 5.18Q75.38 6.46 74.89 7.35Q74.40 8.25 73.57 8.82Q72.74 9.40 71.65 9.65Q70.56 9.91 69.37 9.91L69.37 9.91Q68.17 9.91 67.19 9.71Q66.21 9.50 65.45 9.14Q64.68 8.78 64.13 8.28Q63.58 7.78 63.23 7.19L63.23 7.19L65.64 5.58Q66.27 6.50 67.20 6.90Q68.12 7.30 69.28 7.30L69.28 7.30Q69.86 7.30 70.40 7.21Q70.94 7.12 71.36 6.89Q71.78 6.66 72.04 6.28Q72.30 5.90 72.30 5.33L72.30 5.33Q72.30 4.88 72.10 4.58Q71.91 4.27 71.50 4.02Q71.09 3.78 70.44 3.57Q69.78 3.36 68.86 3.14L68.86 3.14Q67.81 2.87 66.86 2.53Q65.90 2.20 65.18 1.64Q64.45 1.09 64.01 0.26Q63.57-0.57 63.57-1.80L63.57-1.80Q63.57-2.79 63.93-3.62Q64.30-4.46 65.04-5.08Q65.78-5.70 66.88-6.05Q67.97-6.40 69.43-6.40L69.43-6.40Q70.44-6.40 71.33-6.21Q72.22-6.02 72.95-5.67Q73.68-5.32 74.24-4.82Q74.79-4.33 75.15-3.73L75.15-3.73L72.74-2.10Q72.52-2.42 72.21-2.73Q71.90-3.04 71.48-3.27Q71.06-3.51 70.54-3.65Q70.02-3.79 69.37-3.79L69.37-3.79Q68.14-3.79 67.40-3.31Q66.67-2.83 66.67-1.92L66.67-1.92Q66.67-1.49 66.82-1.20Q66.98-0.91 67.32-0.67Q67.67-0.44 68.22-0.25Q68.78-0.07 69.58 0.12L69.58 0.12Q70.91 0.46 71.99 0.84Q73.07 1.23 73.82 1.78Q74.57 2.34 74.98 3.16Q75.38 3.97 75.38 5.18Z"/><path fill="#5272ff" opacity="1" d="M83.01 7.68L83.01 7.68Q83.01 8.76 82.51 9.21Q82.01 9.66 80.91 9.66L80.91 9.66Q80.31 9.66 79.91 9.53Q79.51 9.40 79.27 9.15Q79.03 8.90 78.92 8.52Q78.82 8.15 78.82 7.68L78.82 7.68Q78.82 6.63 79.29 6.15Q79.76 5.66 80.91 5.66L80.91 5.66Q82.07 5.66 82.54 6.14Q83.01 6.62 83.01 7.68Z"/><path fill="#5272ff" opacity="1" d="M103.23 9.46L99.16 9.46L90.89-6.52L90.89 9.46L87.55 9.46L87.55-10.89L92.21-10.89L99.90 3.97L99.90-10.89L103.23-10.89L103.23 9.46Z"/><path fill="#5272ff" opacity="1" d="M120.93 9.46L108.11 9.46L108.11-10.89L120.93-10.89L120.93-7.83L111.54-7.83L111.54-2.67L119.52-2.67L119.52 0.40L111.54 0.40L111.54 6.33L120.93 6.33L120.93 9.46Z"/><path fill="#5272ff" opacity="1" d="M139.57-7.75L133.07-7.75L133.07 9.46L129.63 9.46L129.63-7.75L123.13-7.75L123.13-10.89L139.57-10.89L139.57-7.75Z"/></g><g transform="matrix(1 0 0 1 116 287)"  >
<g style=""   >
		<g transform="matrix(1 0 0 1 10.679500000000004 0.30949999999999633)"  >
<path style="stroke: none; stroke-width: 1; stroke-dasharray: none; stroke-linecap: butt; stroke-dashoffset: 0; stroke-linejoin: miter; stroke-miterlimit: 4; fill: none; fill-rule: nonzero; opacity: 1;"  transform=" translate(-60.179500000000004, -49.8095)" d="M 57.084 49.206 c 2.368 -0.654 4.117 -2.801 4.117 -5.376 c 0 -3.093 -2.508 -5.601 -5.601 -5.601 S 50 40.737 50 43.83 c 0 2.533 1.691 4.646 3.999 5.339 V 61.39 h 0.284 h 2.801 h 13.275 v -3.085 H 57.084 V 49.206 z M 55.554 46.583 c -1.553 0 -2.812 -1.259 -2.812 -2.812 s 1.259 -2.813 2.812 -2.813 s 2.812 1.26 2.812 2.813 S 57.106 46.583 55.554 46.583 z" stroke-linecap="round" />
</g>
		<g transform="matrix(1 0 0 1 -10.390999999999996 3.7265000000000015)"  >
<path style="stroke: none; stroke-width: 1; stroke-dasharray: none; stroke-linecap: butt; stroke-dashoffset: 0; stroke-linejoin: miter; stroke-miterlimit: 4; fill: none; fill-rule: nonzero; opacity: 1;"  transform=" translate(-39.109, -53.2265)" d="M 45.289 53.867 V 41.646 h -0.284 h -2.801 H 28.929 v 3.086 h 13.275 v 9.099 c -2.368 0.653 -4.117 2.801 -4.117 5.375 c 0 3.094 2.508 5.601 5.601 5.601 s 5.601 -2.507 5.601 -5.601 C 49.288 56.674 47.597 54.561 45.289 53.867 z M 43.747 61.817 c -1.553 0 -2.813 -1.26 -2.813 -2.813 s 1.26 -2.812 2.813 -2.812 s 2.812 1.259 2.812 2.812 S 45.3 61.817 43.747 61.817 z" stroke-linecap="round" />
</g>
		<g transform="matrix(1 0 0 1 -7.8535 -33.66900000000001)"  >
<path style="stroke: none; stroke-width: 1; stroke-dasharray: none; stroke-linecap: butt; stroke-dashoffset: 0; stroke-linejoin: miter; stroke-miterlimit: 4; fill: rgb(82,114,255); fill-rule: nonzero; opacity: 1;"  transform=" translate(-41.6465, -15.831)" d="M 41.646 22.637 c 1.337 0 2.421 -1.084 2.421 -2.421 v -8.771 c 0 -1.337 -1.084 -2.42 -2.421 -2.42 s -2.42 1.083 -2.42 2.42 v 8.771 C 39.227 21.553 40.31 22.637 41.646 22.637 z" stroke-linecap="round" />
</g>
		<g transform="matrix(1 0 0 1 0.6885000000000012 -33.66900000000001)"  >
<path style="stroke: none; stroke-width: 1; stroke-dasharray: none; stroke-linecap: butt; stroke-dashoffset: 0; stroke-linejoin: miter; stroke-miterlimit: 4; fill: rgb(82,114,255); fill-rule: nonzero; opacity: 1;"  transform=" translate(-50.188500000000005, -15.831)" d="M 50.189 22.637 c 1.337 0 2.42 -1.084 2.42 -2.421 v -8.771 c 0 -1.337 -1.083 -2.42 -2.42 -2.42 s -2.421 1.083 -2.421 2.42 v 8.771 C 47.769 21.553 48.853 22.637 50.189 22.637 z" stroke-linecap="round" />
</g>
		<g transform="matrix(1 0 0 1 8.853499999999993 -33.66900000000001)"  >
<path style="stroke: none; stroke-width: 1; stroke-dasharray: none; stroke-linecap: butt; stroke-dashoffset: 0; stroke-linejoin: miter; stroke-miterlimit: 4; fill: rgb(82,114,255); fill-rule: nonzero; opacity: 1;"  transform=" translate(-58.3535, -15.831)" d="M 58.354 22.637 c 1.337 0 2.42 -1.084 2.42 -2.421 v -8.771 c 0 -1.337 -1.083 -2.42 -2.42 -2.42 s -2.421 1.083 -2.421 2.42 v 8.771 C 55.933 21.553 57.017 22.637 58.354 22.637 z" stroke-linecap="round" />
</g>
		<g transform="matrix(1 0 0 1 -7.8535 34.669500000000006)"  >
<path style="stroke: none; stroke-width: 1; stroke-dasharray: none; stroke-linecap: butt; stroke-dashoffset: 0; stroke-linejoin: miter; stroke-miterlimit: 4; fill: rgb(82,114,255); fill-rule: nonzero; opacity: 1;"  transform=" translate(-41.6465, -84.1695)" d="M 41.646 77.364 c -1.337 0 -2.42 1.084 -2.42 2.421 v 8.77 c 0 1.337 1.083 2.42 2.42 2.42 s 2.421 -1.083 2.421 -2.42 v -8.77 C 44.067 78.448 42.983 77.364 41.646 77.364 z" stroke-linecap="round" />
</g>
		<g transform="matrix(1 0 0 1 0.6885000000000012 34.669500000000006)"  >
<path style="stroke: none; stroke-width: 1; stroke-dasharray: none; stroke-linecap: butt; stroke-dashoffset: 0; stroke-linejoin: miter; stroke-miterlimit: 4; fill: rgb(82,114,255); fill-rule: nonzero; opacity: 1;"  transform=" translate(-50.188500000000005, -84.1695)" d="M 50.189 77.364 c -1.337 0 -2.421 1.084 -2.421 2.421 v 8.77 c 0 1.337 1.084 2.42 2.421 2.42 s 2.42 -1.083 2.42 -2.42 v -8.77 C 52.609 78.448 51.526 77.364 50.189 77.364 z" stroke-linecap="round" />
</g>
		<g transform="matrix(1 0 0 1 8.853499999999993 34.669500000000006)"  >
<path style="stroke: none; stroke-width: 1; stroke-dasharray: none; stroke-linecap: butt; stroke-dashoffset: 0; stroke-linejoin: miter; stroke-miterlimit: 4; fill: rgb(82,114,255); fill-rule: nonzero; opacity: 1;"  transform=" translate(-58.3535, -84.1695)" d="M 58.354 77.364 c -1.337 0 -2.421 1.084 -2.421 2.421 v 8.77 c 0 1.337 1.084 2.42 2.421 2.42 s 2.42 -1.083 2.42 -2.42 v -8.77 C 60.773 78.448 59.69 77.364 58.354 77.364 z" stroke-linecap="round" />
</g>
		<g transform="matrix(1 0 0 1 0.5 0.5)"  >
<path style="stroke: none; stroke-width: 1; stroke-dasharray: none; stroke-linecap: butt; stroke-dashoffset: 0; stroke-linejoin: miter; stroke-miterlimit: 4; fill: rgb(82,114,255); fill-rule: nonzero; opacity: 1;"  transform=" translate(-50, -50)" d="M 61.39 24.942 H 38.61 c -7.55 0 -13.668 6.119 -13.668 13.668 V 61.39 c 0 7.548 6.118 13.668 13.668 13.668 H 61.39 c 7.549 0 13.668 -6.12 13.668 -13.668 V 38.61 C 75.058 31.062 68.938 24.942 61.39 24.942 z M 43.688 64.807 c -3.093 0 -5.601 -2.507 -5.601 -5.601 c 0 -2.574 1.749 -4.722 4.117 -5.375 v -9.099 H 28.929 v -3.086 h 13.275 h 2.801 h 0.284 v 12.221 c 2.308 0.693 3.999 2.807 3.999 5.339 C 49.288 62.3 46.78 64.807 43.688 64.807 z M 70.359 61.39 H 57.084 h -2.801 h -0.284 V 49.169 C 51.691 48.477 50 46.363 50 43.83 c 0 -3.093 2.508 -5.601 5.601 -5.601 s 5.601 2.508 5.601 5.601 c 0 2.575 -1.749 4.722 -4.117 5.376 v 9.099 h 13.275 V 61.39 z" stroke-linecap="round" />
</g>
		<g transform="matrix(1 0 0 1 34.669500000000006 -7.8535)"  >
<path style="stroke: none; stroke-width: 1; stroke-dasharray: none; stroke-linecap: butt; stroke-dashoffset: 0; stroke-linejoin: miter; stroke-miterlimit: 4; fill: rgb(82,114,255); fill-rule: nonzero; opacity: 1;"  transform=" translate(-84.1695, -41.6465)" d="M 79.785 44.067 h 8.77 c 1.337 0 2.42 -1.084 2.42 -2.421 s -1.083 -2.42 -2.42 -2.42 h -8.77 c -1.337 0 -2.421 1.083 -2.421 2.42 S 78.448 44.067 79.785 44.067 z" stroke-linecap="round" />
</g>
		<g transform="matrix(1 0 0 1 34.669500000000006 0.6894999999999918)"  >
<path style="stroke: none; stroke-width: 1; stroke-dasharray: none; stroke-linecap: butt; stroke-dashoffset: 0; stroke-linejoin: miter; stroke-miterlimit: 4; fill: rgb(82,114,255); fill-rule: nonzero; opacity: 1;"  transform=" translate(-84.1695, -50.189499999999995)" d="M 88.555 47.769 h -8.77 c -1.337 0 -2.421 1.084 -2.421 2.421 s 1.084 2.42 2.421 2.42 h 8.77 c 1.337 0 2.42 -1.083 2.42 -2.42 S 89.892 47.769 88.555 47.769 z" stroke-linecap="round" />
</g>
		<g transform="matrix(1 0 0 1 34.669500000000006 8.853499999999993)"  >
<path style="stroke: none; stroke-width: 1; stroke-dasharray: none; stroke-linecap: butt; stroke-dashoffset: 0; stroke-linejoin: miter; stroke-miterlimit: 4; fill: rgb(82,114,255); fill-rule: nonzero; opacity: 1;"  transform=" translate(-84.1695, -58.3535)" d="M 88.555 55.933 h -8.77 c -1.337 0 -2.421 1.084 -2.421 2.421 s 1.084 2.42 2.421 2.42 h 8.77 c 1.337 0 2.42 -1.083 2.42 -2.42 S 89.892 55.933 88.555 55.933 z" stroke-linecap="round" />
</g>
		<g transform="matrix(1 0 0 1 -33.66949999999999 -7.85250000000001)"  >
<path style="stroke: none; stroke-width: 1; stroke-dasharray: none; stroke-linecap: butt; stroke-dashoffset: 0; stroke-linejoin: miter; stroke-miterlimit: 4; fill: rgb(82,114,255); fill-rule: nonzero; opacity: 1;"  transform=" translate(-15.8305, -41.647499999999994)" d="M 20.215 39.227 h -8.77 c -1.337 0 -2.42 1.083 -2.42 2.42 s 1.083 2.421 2.42 2.421 h 8.77 c 1.337 0 2.421 -1.084 2.421 -2.421 S 21.552 39.227 20.215 39.227 z" stroke-linecap="round" />
</g>
		<g transform="matrix(1 0 0 1 -33.66949999999999 0.6894999999999918)"  >
<path style="stroke: none; stroke-width: 1; stroke-dasharray: none; stroke-linecap: butt; stroke-dashoffset: 0; stroke-linejoin: miter; stroke-miterlimit: 4; fill: rgb(82,114,255); fill-rule: nonzero; opacity: 1;"  transform=" translate(-15.8305, -50.189499999999995)" d="M 20.215 47.769 h -8.77 c -1.337 0 -2.42 1.084 -2.42 2.421 s 1.083 2.42 2.42 2.42 h 8.77 c 1.337 0 2.421 -1.083 2.421 -2.42 S 21.552 47.769 20.215 47.769 z" stroke-linecap="round" />
</g>
		<g transform="matrix(1 0 0 1 -33.66949999999999 8.853499999999993)"  >
<path style="stroke: none; stroke-width: 1; stroke-dasharray: none; stroke-linecap: butt; stroke-dashoffset: 0; stroke-linejoin: miter; stroke-miterlimit: 4; fill: rgb(82,114,255); fill-rule: nonzero; opacity: 1;"  transform=" translate(-15.8305, -58.3535)" d="M 20.215 55.933 h -8.77 c -1.337 0 -2.42 1.084 -2.42 2.421 s 1.083 2.42 2.42 2.42 h 8.77 c 1.337 0 2.421 -1.083 2.421 -2.42 S 21.552 55.933 20.215 55.933 z" stroke-linecap="round" />
</g>
		<g transform="matrix(1 0 0 1 -6.252999999999998 9.005000000000004)"  >
<circle style="stroke: none; stroke-width: 1; stroke-dasharray: none; stroke-linecap: butt; stroke-dashoffset: 0; stroke-linejoin: miter; stroke-miterlimit: 4; fill: rgb(82,114,255); fill-rule: nonzero; opacity: 1;"  cx="0" cy="0" r="2.812" />
</g>
		<g transform="matrix(1 0 0 1 5.554000000000004 -6.228999999999997)"  >
<circle style="stroke: none; stroke-width: 1; stroke-dasharray: none; stroke-linecap: butt; stroke-dashoffset: 0; stroke-linejoin: miter; stroke-miterlimit: 4; fill: rgb(82,114,255); fill-rule: nonzero; opacity: 1;"  cx="0" cy="0" r="2.812" />
</g>
</g>
</g>
</svg>